<svg fill="none" xmlns="http://www.w3.org/2000/svg" viewBox="29 30 188.3 34" width={width || 200}>
      <rect width={width || '250'} height={height || '95'} fill="none" />{' '}
      <path
        d="M95.5 54V51.4H89.38V48.12H94.92V45.66H89.38V42.42H95.5V39.82H86.62V54H95.5ZM112.361 54V39.82H109.601V49.2L103.701 39.82H100.261V54H103.021V43.94L109.461 54H112.361ZM124.593 54H127.673L124.633 48.2C126.493 47.66 127.653 46.16 127.653 44.18C127.653 41.72 125.893 39.82 123.133 39.82H117.593V54H120.373V48.54H121.813L124.593 54ZM120.373 46.16V42.22H122.613C124.013 42.22 124.833 43 124.833 44.2C124.833 45.36 124.013 46.16 122.613 46.16H120.373ZM134.015 46.9C134.015 43.7 136.255 42.18 138.435 42.18C140.635 42.18 142.875 43.7 142.875 46.9C142.875 50.1 140.635 51.62 138.435 51.62C136.255 51.62 134.015 50.1 134.015 46.9ZM131.155 46.92C131.155 51.48 134.595 54.3 138.435 54.3C142.295 54.3 145.735 51.48 145.735 46.92C145.735 42.34 142.295 39.52 138.435 39.52C134.595 39.52 131.155 42.34 131.155 46.92ZM159.208 54V51.36H152.888V39.82H150.128V54H159.208Z"
        fill="#334735"
      />
      <path
        d="M175.039 54V39.82H172.259V45.52H166.079V39.82H163.319V54H166.079V48.12H172.259V54H175.039ZM189.16 54V51.4H183.04V48.12H188.58V45.66H183.04V42.42H189.16V39.82H180.28V54H189.16ZM200.921 54H204.001L200.961 48.2C202.821 47.66 203.981 46.16 203.981 44.18C203.981 41.72 202.221 39.82 199.461 39.82H193.921V54H196.701V48.54H198.141L200.921 54ZM196.701 46.16V42.22H198.941C200.341 42.22 201.161 43 201.161 44.2C201.161 45.36 200.341 46.16 198.941 46.16H196.701ZM217.301 54V51.4H211.181V48.12H216.721V45.66H211.181V42.42H217.301V39.82H208.421V54H217.301Z"
        fill="#2D3959"
      />
      <circle cx="44" cy="47" r="13.5" fill="white" stroke="#334735" stroke-width="3" /> <circle cx="44" cy="47" r="9" fill="#334735" />{' '}
      <circle cx="62" cy="47" r="15.5" stroke="white" stroke-width="3" />{' '}
      <circle cx="62" cy="47" r="13.5" fill="white" stroke="#334735" stroke-width="3" />{' '}
    </svg>