<svg width="43" height="41" viewBox="0 0 43 41" fill="none" xmlns="http://www.w3.org/2000/svg">
<path d="M10.25 4.05567C10.25 2.26074 11.7051 0.805664 13.5 0.805664H29.5C29.6212 0.805664 29.7375 0.853823 29.8232 0.939549L40.6161 11.7324C40.7018 11.8182 40.75 11.9344 40.75 12.0557V36.0557C40.75 37.8506 39.2949 39.3057 37.5 39.3057H13.5C11.7051 39.3057 10.25 37.8506 10.25 36.0557V4.05567Z" stroke="#D0D5DD" stroke-width="1.5"/>
<path d="M29.5 0.555664V8.05566C29.5 10.2648 31.2909 12.0557 33.5 12.0557H41" stroke="#D0D5DD" stroke-width="1.5"/>
<path d="M0 20.0557C0 18.9511 0.895431 18.0557 2 18.0557H31C32.1046 18.0557 33 18.9511 33 20.0557V32.0557C33 33.1602 32.1046 34.0557 31 34.0557H2C0.895431 34.0557 0 33.1602 0 32.0557V20.0557Z" fill="#079455"/>
<path d="M5.31214 22.7829L6.77876 25.2616H6.83558L8.3093 22.7829H10.0458L7.82635 26.4193L10.0955 30.0557H8.32706L6.83558 27.5734H6.77876L5.28729 30.0557H3.52592L5.8022 26.4193L3.56854 22.7829H5.31214ZM11.0188 30.0557V22.7829H12.5565V28.7879H15.6744V30.0557H11.0188ZM20.638 24.8746C20.6096 24.5881 20.4876 24.3656 20.2722 24.2069C20.0568 24.0483 19.7644 23.969 19.3951 23.969C19.1441 23.969 18.9322 24.0045 18.7594 24.0756C18.5866 24.1442 18.454 24.2401 18.3617 24.3632C18.2717 24.4863 18.2267 24.626 18.2267 24.7822C18.222 24.9124 18.2492 25.0261 18.3084 25.1231C18.37 25.2202 18.454 25.3042 18.5605 25.3753C18.6671 25.4439 18.7902 25.5043 18.9299 25.5564C19.0695 25.6061 19.2187 25.6487 19.3773 25.6842L20.0307 25.8405C20.348 25.9115 20.6391 26.0062 20.9043 26.1246C21.1694 26.2429 21.3991 26.3885 21.5932 26.5613C21.7873 26.7342 21.9377 26.9378 22.0442 27.1721C22.1531 27.4065 22.2087 27.6752 22.2111 27.9782C22.2087 28.4233 22.0951 28.8092 21.8702 29.1359C21.6477 29.4603 21.3257 29.7124 20.9043 29.8923C20.4853 30.0699 19.9798 30.1586 19.388 30.1586C18.8008 30.1586 18.2895 30.0687 17.8539 29.8888C17.4206 29.7088 17.0821 29.4425 16.8382 29.0898C16.5968 28.7346 16.4701 28.2955 16.4583 27.7723H17.9462C17.9628 28.0161 18.0326 28.2197 18.1557 28.3831C18.2812 28.5441 18.4481 28.666 18.6564 28.7488C18.8671 28.8293 19.1051 28.8696 19.3702 28.8696C19.6306 28.8696 19.8567 28.8317 20.0485 28.7559C20.2426 28.6802 20.3929 28.5748 20.4995 28.4399C20.606 28.305 20.6593 28.1499 20.6593 27.9747C20.6593 27.8113 20.6107 27.674 20.5137 27.5628C20.419 27.4515 20.2793 27.3568 20.0946 27.2787C19.9123 27.2006 19.6886 27.1295 19.4235 27.0656L18.6316 26.8667C18.0184 26.7176 17.5343 26.4844 17.1792 26.1672C16.824 25.8499 16.6477 25.4226 16.65 24.8852C16.6477 24.4449 16.7649 24.0602 17.0016 23.7311C17.2407 23.402 17.5686 23.1452 17.9853 22.9605C18.4019 22.7758 18.8754 22.6835 19.4057 22.6835C19.9455 22.6835 20.4166 22.7758 20.8191 22.9605C21.2239 23.1452 21.5388 23.402 21.7637 23.7311C21.9886 24.0602 22.1046 24.4413 22.1117 24.8746H20.638ZM24.6871 22.7829L26.1538 25.2616H26.2106L27.6843 22.7829H29.4208L27.2013 26.4193L29.4705 30.0557H27.7021L26.2106 27.5734H26.1538L24.6623 30.0557H22.9009L25.1772 26.4193L22.9435 22.7829H24.6871Z" fill="white"/>
</svg>
