<svg width="38" height="38" viewBox="0 0 38 38" fill="none" xmlns="http://www.w3.org/2000/svg">
<path d="M13.1672 23.1874C12.8797 23.1874 12.6859 23.2155 12.5859 23.2436V25.0843C12.7047 25.1124 12.8531 25.1202 13.0578 25.1202C13.8062 25.1202 14.2672 24.7421 14.2672 24.103C14.2672 23.5311 13.8703 23.1874 13.1672 23.1874ZM18.6156 23.2061C18.3031 23.2061 18.1 23.2343 17.9797 23.2624V27.3405C18.1 27.3686 18.2937 27.3686 18.4688 27.3686C19.7453 27.378 20.5766 26.6749 20.5766 25.1874C20.5859 23.8905 19.8281 23.2061 18.6156 23.2061Z" fill="#E42424"/>
<path d="M22.1249 3.37488H9.62494C8.79614 3.37488 8.00128 3.70412 7.41523 4.29017C6.82918 4.87622 6.49994 5.67108 6.49994 6.49988V31.4999C6.49994 32.3287 6.82918 33.1235 7.41523 33.7096C8.00128 34.2956 8.79614 34.6249 9.62494 34.6249H28.3749C29.2037 34.6249 29.9986 34.2956 30.5846 33.7096C31.1707 33.1235 31.4999 32.3287 31.4999 31.4999V12.7499L22.1249 3.37488ZM15.0906 25.5468C14.6078 25.9999 13.8953 26.203 13.0656 26.203C12.9047 26.2047 12.7439 26.1953 12.5843 26.1749V28.403H11.1874V22.253C11.8178 22.159 12.4548 22.1161 13.0921 22.1249C13.9624 22.1249 14.5812 22.2905 14.9984 22.6233C15.3953 22.9389 15.664 23.4561 15.664 24.0655C15.6624 24.678 15.4593 25.1952 15.0906 25.5468ZM21.039 27.6639C20.3828 28.2093 19.3843 28.4686 18.164 28.4686C17.4328 28.4686 16.9156 28.4218 16.564 28.3749V22.2546C17.1946 22.1625 17.8314 22.1192 18.4687 22.1249C19.6515 22.1249 20.4203 22.3374 21.0203 22.7905C21.6687 23.2718 22.0749 24.0389 22.0749 25.1405C22.0749 26.3327 21.639 27.1561 21.039 27.6639ZM26.8124 23.328H24.4187V24.7514H26.6562V25.8983H24.4187V28.4046H23.0031V22.1718H26.8124V23.328ZM22.1249 14.3124H20.5624V6.49988L28.3749 14.3124H22.1249Z" fill="#E42424"/>
</svg>
